<svg xmlns="http://www.w3.org/2000/svg" version="1.1" xmlns:xlink="http://www.w3.org/1999/xlink" xmlns:svgjs="http://svgjs.com/svgjs" width="19" height="18"><svg width="19" height="18" viewBox="0 0 19 18" fill="none" xmlns="http://www.w3.org/2000/svg">
<path fill-rule="evenodd" clip-rule="evenodd" d="M13.9068 2.1123C13.6977 2.20665 13.4185 2.35839 13.004 2.58432C11.6103 3.34406 9.68706 4.20693 8.04297 4.20693H5.16797C4.45759 4.20693 3.96239 4.20742 3.57687 4.23892C3.19864 4.26982 2.98133 4.32743 2.81674 4.4113C2.46393 4.59106 2.17709 4.8779 1.99733 5.2307C1.91346 5.3953 1.85586 5.6126 1.82495 5.99083C1.79345 6.37636 1.79297 6.87156 1.79297 7.58193L1.79297 8.58193C1.79297 8.97877 1.79331 9.2451 1.80738 9.45132C1.82107 9.65192 1.84563 9.7496 1.87226 9.8139C1.97799 10.0691 2.18077 10.2719 2.43601 10.3776C2.5003 10.4043 2.59798 10.4288 2.79859 10.4425C3.00481 10.4566 3.27113 10.4569 3.66797 10.4569C4.01315 10.4569 4.29297 10.7368 4.29297 11.0819V14.6236C4.29297 14.8319 4.29373 14.8908 4.29799 14.934C4.3467 15.4286 4.73798 15.8199 5.23254 15.8686C5.27576 15.8728 5.33462 15.8736 5.54297 15.8736C5.75132 15.8736 5.81018 15.8728 5.85341 15.8686C6.34797 15.8199 6.73925 15.4286 6.78796 14.934C6.79221 14.8908 6.79297 14.8319 6.79297 14.6236V11.0819C6.79297 10.7368 7.07279 10.4569 7.41797 10.4569H8.04297C9.68706 10.4569 11.6103 11.3198 13.004 12.0795C13.4185 12.3055 13.6977 12.4572 13.9068 12.5516C14.051 12.6166 14.1155 12.6315 14.1302 12.6352C14.1827 12.6263 14.2103 12.6096 14.2434 12.567C14.2474 12.5528 14.2641 12.4939 14.2755 12.3501C14.2925 12.136 14.293 11.8394 14.293 11.3934V3.2705C14.293 2.82441 14.2925 2.52783 14.2755 2.3138C14.2641 2.16995 14.2474 2.11109 14.2434 2.0969C14.2103 2.05423 14.1827 2.03752 14.1302 2.02865C14.1155 2.03235 14.051 2.04726 13.9068 2.1123ZM13.3928 0.972909C13.6345 0.863857 13.9425 0.745883 14.2619 0.78501C14.6817 0.836427 15.0246 1.04005 15.2707 1.38403C15.4552 1.64185 15.501 1.95628 15.5216 2.2148C15.543 2.48449 15.543 2.83147 15.543 3.24394V11.4199C15.543 11.8324 15.543 12.1794 15.5216 12.4491C15.501 12.7076 15.4552 13.022 15.2707 13.2798C15.0246 13.6238 14.6817 13.8274 14.2619 13.8789C13.9425 13.918 13.6345 13.8 13.3928 13.691C13.1353 13.5748 12.8143 13.3998 12.4285 13.1895L12.4057 13.1771C11.021 12.4222 9.34293 11.7069 8.04297 11.7069V14.6236C8.04297 14.6339 8.04297 14.6441 8.04298 14.6541C8.04302 14.8177 8.04305 14.9437 8.03194 15.0566C7.92477 16.1446 7.06396 17.0054 5.97593 17.1126C5.8631 17.1237 5.73707 17.1236 5.57348 17.1236C5.56346 17.1236 5.55329 17.1236 5.54297 17.1236C5.53266 17.1236 5.52249 17.1236 5.51246 17.1236C5.34887 17.1236 5.22284 17.1237 5.11002 17.1126C4.02198 17.0054 3.16117 16.1446 3.05401 15.0566C3.04289 14.9437 3.04293 14.8177 3.04297 14.6541C3.04297 14.6441 3.04297 14.6339 3.04297 14.6236V11.7032C2.92415 11.7007 2.81445 11.6965 2.7135 11.6896C2.44925 11.6716 2.19964 11.6327 1.95765 11.5325C1.39613 11.2999 0.950005 10.8538 0.717414 10.2923C0.617178 10.0503 0.578308 9.80066 0.560279 9.53641C0.542959 9.28256 0.542964 8.97336 0.54297 8.60298L0.542969 7.55518C0.542962 6.87782 0.542957 6.33147 0.579104 5.88904C0.616322 5.43351 0.694955 5.0334 0.883572 4.66321C1.18318 4.07521 1.66124 3.59714 2.24925 3.29754C2.61943 3.10892 3.01955 3.03029 3.47508 2.99307C3.9175 2.95692 4.46385 2.95693 5.14121 2.95693L8.04297 2.95693C9.34292 2.95693 11.021 2.24166 12.4057 1.4868L12.4285 1.47438C12.8144 1.26404 13.1353 1.08905 13.3928 0.972909ZM17.8346 5.04027C18.1798 5.04027 18.4596 5.32009 18.4596 5.66527V8.9986C18.4596 9.34378 18.1798 9.6236 17.8346 9.6236C17.4895 9.6236 17.2096 9.34378 17.2096 8.9986V5.66527C17.2096 5.32009 17.4895 5.04027 17.8346 5.04027Z" fill="#4A4A68"></path>
</svg><style>@media (prefers-color-scheme: light) { :root { filter: none; } }
</style></svg>